# xmcd
#
# Track frame offsets: 
#        150
#        20875
#        39985
#        58470
#        88752
#        132222
#        154285
#        177010
#        200657
#
# Disc length: 2909 seconds
#
# Revision: 2
# Processed by: cddbd v1.5.1PL0 Copyright (c) Steve Scherf et al.
# Submitted via: ExactAudioCopy v0.95a5
#
DISCID=7f0b5b09
DTITLE=Chris Duarte Group - Texas Sugar-Strat Magik
DYEAR=1994
DGENRE=Blues
TTITLE0=My Way Down
TTITLE1=Letter To My Girlfriend
TTITLE2=C-Butt Rock
TTITLE3=Just Kissed My Baby
TTITLE4=Shiloh
TTITLE5=Scrawl
TTITLE6=What Can I Do?
TTITLE7=Big-Legged Woman
TTITLE8=Borrowed Love
EXTD=
EXTT0=
EXTT1=
EXTT2=
EXTT3=
EXTT4=
EXTT5=
EXTT6=
EXTT7=
EXTT8=
PLAYORDER=
